

<svg xmlns="http://www.w3.org/2000/svg" height="24" viewBox="0 0 24 24" width="24" focusable="false" aria-hidden="true" style="pointer-events: none; display: inherit; width: 100%; height: 100%;"><path d="M7,21h1h9.43c1.07,0,1.98-0.67,2.19-1.61l1.34-6c0.27-1.39-0.78-2.54-2.19-2.54h-4.23l1.52-4.94C16.38,4.03,15.54,3,14.38,3c-0.58,0-1.14,0.24-1.52,0.65L7,10H3v10H7z M13.6,4.33c0.19-0.21,0.48-0.33,0.78-0.33c0.26,0,0.5,0.11,0.63,0.3c0.07,0.1,0.15,0.26,0.09,0.47L13.6,9.71l-0.4,1.29h2.37h4.23c0.41,0,0.8,0.17,1.03,0.46c0.12,0.15,0.25,0.4,0.18,0.72l-1.34,6c-0.34,1.52-1.37,1.87-1.97,1.87H8V13.39L13.6,4.33z M4,11h3v8H4V11z"></path></svg>

